<svg viewBox="0 0 64 64" xmlns="http://www.w3.org/2000/svg"><path d="m51 9v2" fill="none" stroke="#000" stroke-linecap="round" stroke-linejoin="round" stroke-width="2"/><path d="m51 15v2" fill="none" stroke="#000" stroke-linecap="round" stroke-linejoin="round" stroke-width="2"/><path d="m47 13h2" fill="none" stroke="#000" stroke-linecap="round" stroke-linejoin="round" stroke-width="2"/><path d="m53 13h2" fill="none" stroke="#000" stroke-linecap="round" stroke-linejoin="round" stroke-width="2"/><circle cx="57.251" cy="28.232" r="1.069"/><circle cx="19.251" cy="13.232" r="1.069"/><circle cx="10.251" cy="24.232" r="1.069"/><circle cx="5.251" cy="43.232" r="1.069"/><circle cx="22.251" cy="29.232" r="1.069"/><circle cx="45.251" cy="23.232" r="1.069"/><circle cx="52.251" cy="47.232" r="1.069"/><circle cx="10.251" cy="10.232" r="1.069"/><g stroke="#000" stroke-linejoin="round" stroke-width="2"><path d="m28 30v-19l4-7 4 7v19" fill="none" stroke-linecap="round"/><path d="m32 1v3" fill="none" stroke-linecap="round"/><path d="m36 30-4 7-4-7-4 7v15h8 8v-15z" fill="none" stroke-linecap="round"/><path d="m35.72 25h-7.351" fill="#fff" stroke-linecap="round"/><path d="m28.369 18h7.152" fill="#fff" stroke-linecap="round"/><path d="m30 52.448v4.552h-4.478a2.522 2.522 0 0 0 -2.522 2.522v.567a2.642 2.642 0 0 0 -2 2.558v.353h22v-.353a2.642 2.642 0 0 0 -2-2.558v-.567a2.522 2.522 0 0 0 -2.522-2.522h-4.478v-4.586" fill="none" stroke-linecap="round"/><path d="m24 46h16" fill="none"/><path d="m24 49h16" fill="none"/><path d="m32 37v15" fill="none"/></g></svg>